<?xml version="1.0" encoding="utf-8" ?>
<svg xmlns="http://www.w3.org/2000/svg" xmlns:xlink="http://www.w3.org/1999/xlink" width="1024" height="731">
	<clipPath id="cl_3">
		<rect y="1.5258789e-05" width="1024" height="731"/>
	</clipPath>
	<g clip-path="url(#cl_3)">
		<path transform="matrix(1 0 0 0.999414 0 -146.2)" d="M265.4 374.203C265.6 374.182 265.8 374.156 266 374.14C276.046 373.359 288.062 375.17 295.906 381.955C301.768 387.026 304.564 394.101 305.108 401.676C306.129 415.899 299.347 430.623 290.14 441.133C268.403 465.95 237.162 456.824 208.377 458.564C212.109 461.218 216.248 463.385 220.443 465.21C226.047 467.648 240.54 471.454 244.075 476.15C244.619 476.872 244.566 477.759 244.292 478.614C243.94 479.713 243.302 480.609 242.331 481.241C237.63 484.296 222.387 488.791 216.019 491.76C187.464 505.073 164.126 529.88 153.513 559.611C148.363 574.04 143.636 593.542 150.75 608.133C153.493 613.759 158.041 617.793 164.024 619.721C175.202 623.323 190.273 618.406 200.218 613.127C240.355 591.821 280.741 534.858 293.708 491.876C290.917 490.11 288.038 488.348 285.695 485.995C281.886 482.172 280.435 477.251 280.539 471.93C280.743 461.602 287.47 453.329 294.541 446.482C298.128 443.009 302.855 438.828 308.176 439.109C310.916 439.254 313.215 440.656 314.955 442.72C321.889 450.947 320.403 464.608 319.415 474.51C328.657 472.243 337.731 469 345.99 464.201C352.292 460.539 366.916 445.851 372.117 445.392C374.199 445.208 376.465 445.887 377.99 447.33C383.243 452.302 380.529 462.779 378.614 468.789C376.018 476.937 370.906 485.144 367.119 492.886C356.97 513.632 330.675 566.132 331.138 587.046C331.202 589.958 331.916 593.883 334.266 595.883C335.754 597.149 337.619 597.392 339.499 597.11C358.486 594.262 380.94 555.84 389.281 539.497C395.281 527.743 400.213 515.482 405.578 503.432Q412.658 487.912 419.559 472.311C423.667 462.817 428.602 448.286 434.584 440.151C434.682 440.019 434.784 439.889 434.884 439.758C443.639 442.942 453.406 449.926 459.748 456.706C452.101 473.614 444.706 490.567 436.658 507.297C426.594 528.217 414.197 551.692 407.459 573.741C405.765 579.287 405.057 584.434 404.916 590.216C405.919 592.395 407.006 594.264 409.244 595.358C412.27 596.838 415.357 596.551 418.479 595.515C425.866 593.065 432.343 587.586 437.696 582.107C447.034 572.55 455.225 560.849 459.933 548.296C464.662 535.684 467.73 523.178 473.883 511.02C487.925 483.268 511.088 453.463 541.703 443.6C551.997 440.284 565.01 438.683 574.92 444.062C581.771 447.781 586.203 454.756 588.183 462.133C592.836 479.468 585.749 499.504 577.067 514.41C574.419 518.958 568.233 529.054 562.593 529.999C561.397 530.2 560.298 530.115 559.346 529.279C551.377 522.288 569.129 485.107 567.467 473.481C567.086 470.815 565.868 468.218 563.607 466.649C561.587 465.246 559.17 465.061 556.808 465.499C540.3 468.56 523.476 489.615 514.31 502.762C500.754 522.205 484.101 552.558 488.577 576.717C489.876 583.731 493.129 590.728 499.248 594.774C504.165 598.025 510.794 598.499 516.436 597.361C536.007 593.413 561.369 571.945 572.655 555.457C577.369 548.569 579.98 540.559 583.09 532.875Q587.23 522.715 591.764 512.724C605.441 482.548 620.414 452.513 638.624 424.796C651.994 404.447 668.48 383.921 693.626 378.856C704.911 376.583 718.131 377.725 727.799 384.472C733.377 388.365 736.07 393.109 737.215 399.688C726.725 397.17 715.223 395.414 704.796 399.097C673.399 410.186 633.922 496.716 619.287 527.632C637.774 531.725 655.415 533.573 673.897 528.212C681.857 502.656 698.678 477.109 719.317 460.188C731.592 450.239 745.531 442.406 761.542 440.95C770.383 440.146 779.885 441.447 786.838 447.419C792.203 452.027 795.115 458.794 795.549 465.781C796.639 483.341 787.052 500.734 775.685 513.457C758.908 532.234 733.988 545.728 709.707 551.794C705.611 552.817 701.381 553.917 697.158 554.155C696.046 562.623 694.872 572.194 697.571 580.481C699.596 586.698 703.429 592.232 709.447 595.14C717.148 598.861 726.204 597.664 733.993 594.903C749.95 589.248 771.95 571.076 781.443 557.083C786.659 549.394 789.123 540.034 792.339 531.392Q795.915 522.014 799.889 512.798C810.88 487.131 823.159 461.983 835.117 436.754C844.069 441.156 852.413 450.235 858.547 457.962C854.948 464.285 852.049 471.22 849.04 477.84L834.929 508.929C825.822 528.882 815.416 548.713 807.848 569.303C805.804 574.863 801.679 584.201 803.173 590.041C803.6 591.712 804.582 593.071 806.079 593.937C809.406 595.86 814.152 595.324 817.693 594.393C841.975 588.01 865.085 548.86 876.044 527.541C881.328 517.261 885.642 506.27 891.373 496.258C893.245 500.19 895.111 504.154 896.008 508.442C899.952 527.309 874.963 566.348 864.557 581.968C853.214 598.995 838.466 617.113 817.269 621.2C807.782 623.029 796.005 621.866 787.969 616.12C779.904 610.354 778.728 601.163 777.23 592.146C772.091 596.41 766.873 600.637 761.456 604.546C745.321 616.187 726.407 624.679 706.112 621.271C694.266 619.281 683.56 613.064 676.619 603.163C664.942 586.507 666.31 565.364 669.71 546.346Q667.363 547.013 664.981 547.542Q662.599 548.07 660.19 548.458Q657.782 548.846 655.354 549.093Q652.927 549.339 650.489 549.442Q648.051 549.546 645.612 549.506Q643.172 549.467 640.739 549.284Q638.306 549.102 635.888 548.777Q633.47 548.452 631.075 547.986C634.452 565.919 636.105 583.419 632.974 601.57C630.299 617.079 623.977 635.811 610.398 645.211Q609.819 645.62 609.22 646Q608.621 646.38 608.003 646.73Q607.386 647.08 606.752 647.398Q606.119 647.717 605.47 648.003Q604.821 648.29 604.159 648.544Q603.496 648.798 602.822 649.018Q602.148 649.239 601.464 649.426Q600.779 649.613 600.087 649.765Q599.394 649.918 598.694 650.036Q597.995 650.154 597.291 650.237Q596.586 650.32 595.878 650.368Q595.171 650.416 594.461 650.428Q593.752 650.441 593.043 650.418Q592.334 650.395 591.627 650.337Q590.92 650.279 590.217 650.186Q589.514 650.093 588.816 649.965C580.979 648.468 574.56 643.608 570.166 637.079C562.439 625.599 561.046 607.687 563.597 594.43C551.769 604.968 539.556 614.198 524.214 618.987C510.621 623.23 494.024 623.236 481.243 616.433C468.884 609.855 463.794 598.813 459.864 585.964C450.69 599.098 439.561 612.639 424.26 618.747C414.836 622.509 402.642 623.151 393.261 618.889C384.035 614.698 380.196 607.291 376.715 598.41C369.609 606.151 361.769 613.852 351.96 618.067C341.892 622.392 329.427 622.694 319.228 618.627C312.243 615.842 306.113 610.777 303.258 603.665C292.81 577.641 323.636 519.147 334.707 493.733C327.62 495.285 320.125 496.113 312.87 495.788Q312.678 496.435 312.465 497.076C309.018 507.544 303.362 518.389 298.278 528.153C277.079 568.868 243.789 617.436 201.509 638.462C184.886 646.729 166.961 650.674 148.939 644.452Q147.791 644.059 146.663 643.609Q145.536 643.16 144.432 642.655Q143.328 642.15 142.251 641.591Q141.173 641.033 140.125 640.422Q139.076 639.811 138.059 639.148Q137.042 638.486 136.058 637.775Q135.075 637.063 134.128 636.304Q133.181 635.545 132.273 634.739Q131.365 633.934 130.497 633.085Q129.63 632.236 128.806 631.346Q127.981 630.455 127.202 629.524Q126.422 628.594 125.69 627.626Q124.957 626.658 124.273 625.656Q123.59 624.653 122.956 623.618Q122.323 622.582 121.741 621.517Q121.159 620.452 120.631 619.359C111.371 599.821 114.44 574.668 121.609 554.99Q122.115 553.609 122.653 552.239Q123.19 550.87 123.76 549.514Q124.33 548.157 124.931 546.815Q125.532 545.472 126.164 544.144Q126.797 542.816 127.46 541.503Q128.123 540.189 128.816 538.892Q129.51 537.595 130.234 536.314Q130.957 535.033 131.711 533.77Q132.464 532.506 133.247 531.261Q134.029 530.015 134.841 528.788Q135.652 527.561 136.492 526.353Q137.332 525.146 138.2 523.958Q139.067 522.77 139.963 521.603Q140.858 520.435 141.78 519.289Q142.703 518.143 143.651 517.019Q144.6 515.895 145.575 514.793Q146.55 513.691 147.55 512.612Q148.55 511.534 149.575 510.479Q150.6 509.423 151.649 508.392Q152.699 507.362 153.772 506.355Q154.845 505.349 155.942 504.368Q157.038 503.388 158.157 502.433Q159.276 501.478 160.417 500.549Q161.558 499.62 162.72 498.719Q163.882 497.817 165.065 496.942Q166.248 496.068 167.451 495.221Q168.654 494.375 169.877 493.556Q171.099 492.738 172.34 491.949Q173.582 491.159 174.841 490.399Q176.1 489.638 177.377 488.908Q178.654 488.177 179.947 487.476Q181.241 486.775 182.55 486.105C190.101 482.169 198.128 479.542 205.833 475.977C197.281 470.895 189.702 465.543 182.152 459.025C164.647 457.996 142.634 462.203 127.594 450.948C120.16 445.386 117.917 438.059 116.634 429.35C123.844 428.617 131.271 428.944 138.512 428.985Q155.773 429.065 173.032 429.347Q176.376 424.868 179.918 420.543C200.909 395.133 232.559 377.373 265.4 374.203ZM700.556 542.071L706.337 540.281C731.728 530.978 758.502 512.182 770.227 487.085C772.574 482.06 775.451 473.777 773.276 468.364C772.642 466.786 771.371 465.431 769.78 464.798C768.702 464.369 767.562 464.238 766.418 464.122C743.152 470.397 727.261 489.773 715.647 509.961C709.845 520.046 704.046 530.939 700.556 542.071ZM206.355 430.462C211.756 430.695 217.242 430.743 222.626 431.185C232.377 431.656 254.236 434.331 263.164 431.927C266.778 430.954 269.9 429.011 272.644 426.498C277.966 421.627 283.199 412.064 283.41 404.792C283.481 402.363 282.766 400.278 281.006 398.571C278.111 395.765 274.033 395.714 270.249 395.689C246.28 398.109 222.561 410.674 207.184 429.386C206.896 429.736 206.627 430.101 206.355 430.462ZM597.608 630.244C609.746 621.786 613.405 606.773 615.922 592.935C617.804 582.584 620.181 547 614.681 539.256C614.58 539.114 614.452 538.992 614.338 538.861C606.187 557.478 587.46 607.01 594.46 625.822C595.161 627.706 596.145 628.895 597.608 630.244Z"/>
		<path transform="matrix(1 0 0 0.999414 0 -146.2)" d="M866.53 378.615C871.716 379.641 876.345 381.567 880.439 384.992C884.634 388.502 887.429 393.381 887.816 398.885C888.795 412.832 873.309 433.516 864.35 443.654C863.602 444.485 863.09 445.174 862.043 445.629C861.273 445.964 860.637 445.777 859.881 445.417C854.216 442.714 847.651 434.731 845.971 428.89C842.759 417.727 851.076 398.361 856.265 388.667C858.765 383.994 861.24 380.223 866.53 378.615Z"/>
		<path transform="matrix(1 0 0 0.999414 0 -146.2)" d="M464.84 379.562C469.229 379.806 474.02 382.194 477.391 384.881C481.975 388.532 485.681 393.513 486.231 399.502C487.395 412.179 472.663 431.244 464.575 440.741C463.429 441.768 462.665 442.456 461.025 442.47C455.353 442.518 448.016 433.454 444.478 429.578C445.564 416.481 446.966 402.571 452.922 390.637C455.627 385.217 459.008 381.503 464.84 379.562Z"/>
	</g>
</svg>
